<?xml version="1.0" encoding="UTF-8"?>
<svg xmlns="http://www.w3.org/2000/svg" width="32" height="128" viewBox="0 0 32 128">
  <title>Skazka DNA Stripe — Neon Seamless (32x128)</title>
  <desc>Seamless tile: 1 turn per 128px. Butt caps to avoid seams. Neo blue.</desc>
  <path d="M 15.51 -1.00 L 16.00 0.00 L 16.49 1.00 L 16.98 2.00 L 17.47 3.00 L 17.95 4.00 L 18.43 5.00 L 18.90 6.00 L 19.37 7.00 L 19.83 8.00 L 20.28 9.00 L 20.71 10.00 L 21.14 11.00 L 21.56 12.00 L 21.96 13.00 L 22.34 14.00 L 22.72 15.00 L 23.07 16.00 L 23.41 17.00 L 23.73 18.00 L 24.03 19.00 L 24.31 20.00 L 24.58 21.00 L 24.82 22.00 L 25.04 23.00 L 25.24 24.00 L 25.42 25.00 L 25.57 26.00 L 25.70 27.00 L 25.81 28.00 L 25.89 29.00 L 25.95 30.00 L 25.99 31.00 L 26.00 32.00 L 25.99 33.00 L 25.95 34.00 L 25.89 35.00 L 25.81 36.00 L 25.70 37.00 L 25.57 38.00 L 25.42 39.00 L 25.24 40.00 L 25.04 41.00 L 24.82 42.00 L 24.58 43.00 L 24.31 44.00 L 24.03 45.00 L 23.73 46.00 L 23.41 47.00 L 23.07 48.00 L 22.72 49.00 L 22.34 50.00 L 21.96 51.00 L 21.56 52.00 L 21.14 53.00 L 20.71 54.00 L 20.28 55.00 L 19.83 56.00 L 19.37 57.00 L 18.90 58.00 L 18.43 59.00 L 17.95 60.00 L 17.47 61.00 L 16.98 62.00 L 16.49 63.00 L 16.00 64.00 L 15.51 65.00 L 15.02 66.00 L 14.53 67.00 L 14.05 68.00 L 13.57 69.00 L 13.10 70.00 L 12.63 71.00 L 12.17 72.00 L 11.72 73.00 L 11.29 74.00 L 10.86 75.00 L 10.44 76.00 L 10.04 77.00 L 9.66 78.00 L 9.28 79.00 L 8.93 80.00 L 8.59 81.00 L 8.27 82.00 L 7.97 83.00 L 7.69 84.00 L 7.42 85.00 L 7.18 86.00 L 6.96 87.00 L 6.76 88.00 L 6.58 89.00 L 6.43 90.00 L 6.30 91.00 L 6.19 92.00 L 6.11 93.00 L 6.05 94.00 L 6.01 95.00 L 6.00 96.00 L 6.01 97.00 L 6.05 98.00 L 6.11 99.00 L 6.19 100.00 L 6.30 101.00 L 6.43 102.00 L 6.58 103.00 L 6.76 104.00 L 6.96 105.00 L 7.18 106.00 L 7.42 107.00 L 7.69 108.00 L 7.97 109.00 L 8.27 110.00 L 8.59 111.00 L 8.93 112.00 L 9.28 113.00 L 9.66 114.00 L 10.04 115.00 L 10.44 116.00 L 10.86 117.00 L 11.29 118.00 L 11.72 119.00 L 12.17 120.00 L 12.63 121.00 L 13.10 122.00 L 13.57 123.00 L 14.05 124.00 L 14.53 125.00 L 15.02 126.00 L 15.51 127.00 L 16.00 128.00 L 16.49 129.00" fill="none" stroke="#08C5FF" stroke-opacity="0.22" stroke-width="4.6" stroke-linecap="butt" stroke-linejoin="round"/>
  <path d="M 16.49 -1.00 L 16.00 0.00 L 15.51 1.00 L 15.02 2.00 L 14.53 3.00 L 14.05 4.00 L 13.57 5.00 L 13.10 6.00 L 12.63 7.00 L 12.17 8.00 L 11.72 9.00 L 11.29 10.00 L 10.86 11.00 L 10.44 12.00 L 10.04 13.00 L 9.66 14.00 L 9.28 15.00 L 8.93 16.00 L 8.59 17.00 L 8.27 18.00 L 7.97 19.00 L 7.69 20.00 L 7.42 21.00 L 7.18 22.00 L 6.96 23.00 L 6.76 24.00 L 6.58 25.00 L 6.43 26.00 L 6.30 27.00 L 6.19 28.00 L 6.11 29.00 L 6.05 30.00 L 6.01 31.00 L 6.00 32.00 L 6.01 33.00 L 6.05 34.00 L 6.11 35.00 L 6.19 36.00 L 6.30 37.00 L 6.43 38.00 L 6.58 39.00 L 6.76 40.00 L 6.96 41.00 L 7.18 42.00 L 7.42 43.00 L 7.69 44.00 L 7.97 45.00 L 8.27 46.00 L 8.59 47.00 L 8.93 48.00 L 9.28 49.00 L 9.66 50.00 L 10.04 51.00 L 10.44 52.00 L 10.86 53.00 L 11.29 54.00 L 11.72 55.00 L 12.17 56.00 L 12.63 57.00 L 13.10 58.00 L 13.57 59.00 L 14.05 60.00 L 14.53 61.00 L 15.02 62.00 L 15.51 63.00 L 16.00 64.00 L 16.49 65.00 L 16.98 66.00 L 17.47 67.00 L 17.95 68.00 L 18.43 69.00 L 18.90 70.00 L 19.37 71.00 L 19.83 72.00 L 20.28 73.00 L 20.71 74.00 L 21.14 75.00 L 21.56 76.00 L 21.96 77.00 L 22.34 78.00 L 22.72 79.00 L 23.07 80.00 L 23.41 81.00 L 23.73 82.00 L 24.03 83.00 L 24.31 84.00 L 24.58 85.00 L 24.82 86.00 L 25.04 87.00 L 25.24 88.00 L 25.42 89.00 L 25.57 90.00 L 25.70 91.00 L 25.81 92.00 L 25.89 93.00 L 25.95 94.00 L 25.99 95.00 L 26.00 96.00 L 25.99 97.00 L 25.95 98.00 L 25.89 99.00 L 25.81 100.00 L 25.70 101.00 L 25.57 102.00 L 25.42 103.00 L 25.24 104.00 L 25.04 105.00 L 24.82 106.00 L 24.58 107.00 L 24.31 108.00 L 24.03 109.00 L 23.73 110.00 L 23.41 111.00 L 23.07 112.00 L 22.72 113.00 L 22.34 114.00 L 21.96 115.00 L 21.56 116.00 L 21.14 117.00 L 20.71 118.00 L 20.28 119.00 L 19.83 120.00 L 19.37 121.00 L 18.90 122.00 L 18.43 123.00 L 17.95 124.00 L 17.47 125.00 L 16.98 126.00 L 16.49 127.00 L 16.00 128.00 L 15.51 129.00" fill="none" stroke="#08C5FF" stroke-opacity="0.22" stroke-width="4.6" stroke-linecap="butt" stroke-linejoin="round"/>
  <path d="M 15.51 -1.00 L 16.00 0.00 L 16.49 1.00 L 16.98 2.00 L 17.47 3.00 L 17.95 4.00 L 18.43 5.00 L 18.90 6.00 L 19.37 7.00 L 19.83 8.00 L 20.28 9.00 L 20.71 10.00 L 21.14 11.00 L 21.56 12.00 L 21.96 13.00 L 22.34 14.00 L 22.72 15.00 L 23.07 16.00 L 23.41 17.00 L 23.73 18.00 L 24.03 19.00 L 24.31 20.00 L 24.58 21.00 L 24.82 22.00 L 25.04 23.00 L 25.24 24.00 L 25.42 25.00 L 25.57 26.00 L 25.70 27.00 L 25.81 28.00 L 25.89 29.00 L 25.95 30.00 L 25.99 31.00 L 26.00 32.00 L 25.99 33.00 L 25.95 34.00 L 25.89 35.00 L 25.81 36.00 L 25.70 37.00 L 25.57 38.00 L 25.42 39.00 L 25.24 40.00 L 25.04 41.00 L 24.82 42.00 L 24.58 43.00 L 24.31 44.00 L 24.03 45.00 L 23.73 46.00 L 23.41 47.00 L 23.07 48.00 L 22.72 49.00 L 22.34 50.00 L 21.96 51.00 L 21.56 52.00 L 21.14 53.00 L 20.71 54.00 L 20.28 55.00 L 19.83 56.00 L 19.37 57.00 L 18.90 58.00 L 18.43 59.00 L 17.95 60.00 L 17.47 61.00 L 16.98 62.00 L 16.49 63.00 L 16.00 64.00 L 15.51 65.00 L 15.02 66.00 L 14.53 67.00 L 14.05 68.00 L 13.57 69.00 L 13.10 70.00 L 12.63 71.00 L 12.17 72.00 L 11.72 73.00 L 11.29 74.00 L 10.86 75.00 L 10.44 76.00 L 10.04 77.00 L 9.66 78.00 L 9.28 79.00 L 8.93 80.00 L 8.59 81.00 L 8.27 82.00 L 7.97 83.00 L 7.69 84.00 L 7.42 85.00 L 7.18 86.00 L 6.96 87.00 L 6.76 88.00 L 6.58 89.00 L 6.43 90.00 L 6.30 91.00 L 6.19 92.00 L 6.11 93.00 L 6.05 94.00 L 6.01 95.00 L 6.00 96.00 L 6.01 97.00 L 6.05 98.00 L 6.11 99.00 L 6.19 100.00 L 6.30 101.00 L 6.43 102.00 L 6.58 103.00 L 6.76 104.00 L 6.96 105.00 L 7.18 106.00 L 7.42 107.00 L 7.69 108.00 L 7.97 109.00 L 8.27 110.00 L 8.59 111.00 L 8.93 112.00 L 9.28 113.00 L 9.66 114.00 L 10.04 115.00 L 10.44 116.00 L 10.86 117.00 L 11.29 118.00 L 11.72 119.00 L 12.17 120.00 L 12.63 121.00 L 13.10 122.00 L 13.57 123.00 L 14.05 124.00 L 14.53 125.00 L 15.02 126.00 L 15.51 127.00 L 16.00 128.00 L 16.49 129.00" fill="none" stroke="#08C5FF" stroke-opacity="0.35" stroke-width="3.2" stroke-linecap="butt" stroke-linejoin="round"/>
  <path d="M 16.49 -1.00 L 16.00 0.00 L 15.51 1.00 L 15.02 2.00 L 14.53 3.00 L 14.05 4.00 L 13.57 5.00 L 13.10 6.00 L 12.63 7.00 L 12.17 8.00 L 11.72 9.00 L 11.29 10.00 L 10.86 11.00 L 10.44 12.00 L 10.04 13.00 L 9.66 14.00 L 9.28 15.00 L 8.93 16.00 L 8.59 17.00 L 8.27 18.00 L 7.97 19.00 L 7.69 20.00 L 7.42 21.00 L 7.18 22.00 L 6.96 23.00 L 6.76 24.00 L 6.58 25.00 L 6.43 26.00 L 6.30 27.00 L 6.19 28.00 L 6.11 29.00 L 6.05 30.00 L 6.01 31.00 L 6.00 32.00 L 6.01 33.00 L 6.05 34.00 L 6.11 35.00 L 6.19 36.00 L 6.30 37.00 L 6.43 38.00 L 6.58 39.00 L 6.76 40.00 L 6.96 41.00 L 7.18 42.00 L 7.42 43.00 L 7.69 44.00 L 7.97 45.00 L 8.27 46.00 L 8.59 47.00 L 8.93 48.00 L 9.28 49.00 L 9.66 50.00 L 10.04 51.00 L 10.44 52.00 L 10.86 53.00 L 11.29 54.00 L 11.72 55.00 L 12.17 56.00 L 12.63 57.00 L 13.10 58.00 L 13.57 59.00 L 14.05 60.00 L 14.53 61.00 L 15.02 62.00 L 15.51 63.00 L 16.00 64.00 L 16.49 65.00 L 16.98 66.00 L 17.47 67.00 L 17.95 68.00 L 18.43 69.00 L 18.90 70.00 L 19.37 71.00 L 19.83 72.00 L 20.28 73.00 L 20.71 74.00 L 21.14 75.00 L 21.56 76.00 L 21.96 77.00 L 22.34 78.00 L 22.72 79.00 L 23.07 80.00 L 23.41 81.00 L 23.73 82.00 L 24.03 83.00 L 24.31 84.00 L 24.58 85.00 L 24.82 86.00 L 25.04 87.00 L 25.24 88.00 L 25.42 89.00 L 25.57 90.00 L 25.70 91.00 L 25.81 92.00 L 25.89 93.00 L 25.95 94.00 L 25.99 95.00 L 26.00 96.00 L 25.99 97.00 L 25.95 98.00 L 25.89 99.00 L 25.81 100.00 L 25.70 101.00 L 25.57 102.00 L 25.42 103.00 L 25.24 104.00 L 25.04 105.00 L 24.82 106.00 L 24.58 107.00 L 24.31 108.00 L 24.03 109.00 L 23.73 110.00 L 23.41 111.00 L 23.07 112.00 L 22.72 113.00 L 22.34 114.00 L 21.96 115.00 L 21.56 116.00 L 21.14 117.00 L 20.71 118.00 L 20.28 119.00 L 19.83 120.00 L 19.37 121.00 L 18.90 122.00 L 18.43 123.00 L 17.95 124.00 L 17.47 125.00 L 16.98 126.00 L 16.49 127.00 L 16.00 128.00 L 15.51 129.00" fill="none" stroke="#08C5FF" stroke-opacity="0.35" stroke-width="3.2" stroke-linecap="butt" stroke-linejoin="round"/>
  <path d="M 15.51 -1.00 L 16.00 0.00 L 16.49 1.00 L 16.98 2.00 L 17.47 3.00 L 17.95 4.00 L 18.43 5.00 L 18.90 6.00 L 19.37 7.00 L 19.83 8.00 L 20.28 9.00 L 20.71 10.00 L 21.14 11.00 L 21.56 12.00 L 21.96 13.00 L 22.34 14.00 L 22.72 15.00 L 23.07 16.00 L 23.41 17.00 L 23.73 18.00 L 24.03 19.00 L 24.31 20.00 L 24.58 21.00 L 24.82 22.00 L 25.04 23.00 L 25.24 24.00 L 25.42 25.00 L 25.57 26.00 L 25.70 27.00 L 25.81 28.00 L 25.89 29.00 L 25.95 30.00 L 25.99 31.00 L 26.00 32.00 L 25.99 33.00 L 25.95 34.00 L 25.89 35.00 L 25.81 36.00 L 25.70 37.00 L 25.57 38.00 L 25.42 39.00 L 25.24 40.00 L 25.04 41.00 L 24.82 42.00 L 24.58 43.00 L 24.31 44.00 L 24.03 45.00 L 23.73 46.00 L 23.41 47.00 L 23.07 48.00 L 22.72 49.00 L 22.34 50.00 L 21.96 51.00 L 21.56 52.00 L 21.14 53.00 L 20.71 54.00 L 20.28 55.00 L 19.83 56.00 L 19.37 57.00 L 18.90 58.00 L 18.43 59.00 L 17.95 60.00 L 17.47 61.00 L 16.98 62.00 L 16.49 63.00 L 16.00 64.00 L 15.51 65.00 L 15.02 66.00 L 14.53 67.00 L 14.05 68.00 L 13.57 69.00 L 13.10 70.00 L 12.63 71.00 L 12.17 72.00 L 11.72 73.00 L 11.29 74.00 L 10.86 75.00 L 10.44 76.00 L 10.04 77.00 L 9.66 78.00 L 9.28 79.00 L 8.93 80.00 L 8.59 81.00 L 8.27 82.00 L 7.97 83.00 L 7.69 84.00 L 7.42 85.00 L 7.18 86.00 L 6.96 87.00 L 6.76 88.00 L 6.58 89.00 L 6.43 90.00 L 6.30 91.00 L 6.19 92.00 L 6.11 93.00 L 6.05 94.00 L 6.01 95.00 L 6.00 96.00 L 6.01 97.00 L 6.05 98.00 L 6.11 99.00 L 6.19 100.00 L 6.30 101.00 L 6.43 102.00 L 6.58 103.00 L 6.76 104.00 L 6.96 105.00 L 7.18 106.00 L 7.42 107.00 L 7.69 108.00 L 7.97 109.00 L 8.27 110.00 L 8.59 111.00 L 8.93 112.00 L 9.28 113.00 L 9.66 114.00 L 10.04 115.00 L 10.44 116.00 L 10.86 117.00 L 11.29 118.00 L 11.72 119.00 L 12.17 120.00 L 12.63 121.00 L 13.10 122.00 L 13.57 123.00 L 14.05 124.00 L 14.53 125.00 L 15.02 126.00 L 15.51 127.00 L 16.00 128.00 L 16.49 129.00" fill="none" stroke="#08C5FF" stroke-opacity="0.9" stroke-width="2.0" stroke-linecap="butt" stroke-linejoin="round"/>
  <path d="M 16.49 -1.00 L 16.00 0.00 L 15.51 1.00 L 15.02 2.00 L 14.53 3.00 L 14.05 4.00 L 13.57 5.00 L 13.10 6.00 L 12.63 7.00 L 12.17 8.00 L 11.72 9.00 L 11.29 10.00 L 10.86 11.00 L 10.44 12.00 L 10.04 13.00 L 9.66 14.00 L 9.28 15.00 L 8.93 16.00 L 8.59 17.00 L 8.27 18.00 L 7.97 19.00 L 7.69 20.00 L 7.42 21.00 L 7.18 22.00 L 6.96 23.00 L 6.76 24.00 L 6.58 25.00 L 6.43 26.00 L 6.30 27.00 L 6.19 28.00 L 6.11 29.00 L 6.05 30.00 L 6.01 31.00 L 6.00 32.00 L 6.01 33.00 L 6.05 34.00 L 6.11 35.00 L 6.19 36.00 L 6.30 37.00 L 6.43 38.00 L 6.58 39.00 L 6.76 40.00 L 6.96 41.00 L 7.18 42.00 L 7.42 43.00 L 7.69 44.00 L 7.97 45.00 L 8.27 46.00 L 8.59 47.00 L 8.93 48.00 L 9.28 49.00 L 9.66 50.00 L 10.04 51.00 L 10.44 52.00 L 10.86 53.00 L 11.29 54.00 L 11.72 55.00 L 12.17 56.00 L 12.63 57.00 L 13.10 58.00 L 13.57 59.00 L 14.05 60.00 L 14.53 61.00 L 15.02 62.00 L 15.51 63.00 L 16.00 64.00 L 16.49 65.00 L 16.98 66.00 L 17.47 67.00 L 17.95 68.00 L 18.43 69.00 L 18.90 70.00 L 19.37 71.00 L 19.83 72.00 L 20.28 73.00 L 20.71 74.00 L 21.14 75.00 L 21.56 76.00 L 21.96 77.00 L 22.34 78.00 L 22.72 79.00 L 23.07 80.00 L 23.41 81.00 L 23.73 82.00 L 24.03 83.00 L 24.31 84.00 L 24.58 85.00 L 24.82 86.00 L 25.04 87.00 L 25.24 88.00 L 25.42 89.00 L 25.57 90.00 L 25.70 91.00 L 25.81 92.00 L 25.89 93.00 L 25.95 94.00 L 25.99 95.00 L 26.00 96.00 L 25.99 97.00 L 25.95 98.00 L 25.89 99.00 L 25.81 100.00 L 25.70 101.00 L 25.57 102.00 L 25.42 103.00 L 25.24 104.00 L 25.04 105.00 L 24.82 106.00 L 24.58 107.00 L 24.31 108.00 L 24.03 109.00 L 23.73 110.00 L 23.41 111.00 L 23.07 112.00 L 22.72 113.00 L 22.34 114.00 L 21.96 115.00 L 21.56 116.00 L 21.14 117.00 L 20.71 118.00 L 20.28 119.00 L 19.83 120.00 L 19.37 121.00 L 18.90 122.00 L 18.43 123.00 L 17.95 124.00 L 17.47 125.00 L 16.98 126.00 L 16.49 127.00 L 16.00 128.00 L 15.51 129.00" fill="none" stroke="#08C5FF" stroke-opacity="0.9" stroke-width="2.0" stroke-linecap="butt" stroke-linejoin="round"/>
  <path d="M 12.17 8.00 L 19.83 8.00" fill="none" stroke="#08C5FF" stroke-opacity=".6" stroke-width="1.6" stroke-linecap="butt"/><path d="M 6.76 24.00 L 25.24 24.00" fill="none" stroke="#08C5FF" stroke-opacity=".6" stroke-width="1.6" stroke-linecap="butt"/><path d="M 6.76 40.00 L 25.24 40.00" fill="none" stroke="#08C5FF" stroke-opacity=".6" stroke-width="1.6" stroke-linecap="butt"/><path d="M 12.17 56.00 L 19.83 56.00" fill="none" stroke="#08C5FF" stroke-opacity=".6" stroke-width="1.6" stroke-linecap="butt"/><path d="M 19.83 72.00 L 12.17 72.00" fill="none" stroke="#08C5FF" stroke-opacity=".6" stroke-width="1.6" stroke-linecap="butt"/><path d="M 25.24 88.00 L 6.76 88.00" fill="none" stroke="#08C5FF" stroke-opacity=".6" stroke-width="1.6" stroke-linecap="butt"/><path d="M 25.24 104.00 L 6.76 104.00" fill="none" stroke="#08C5FF" stroke-opacity=".6" stroke-width="1.6" stroke-linecap="butt"/><path d="M 19.83 120.00 L 12.17 120.00" fill="none" stroke="#08C5FF" stroke-opacity=".6" stroke-width="1.6" stroke-linecap="butt"/>
</svg>
