<?xml version="1.0" encoding="UTF-8"?>
<svg xmlns="http://www.w3.org/2000/svg" width="64" height="256" viewBox="0 0 64 256">
  <title>Skazka DNA Spine — Classic Helix (64x256)</title>
  <desc>Accurate double-helix look: mirrored sine strands with horizontal rungs, center axis, tileable vertically. Neo blue.</desc>
  <defs>
    <style>
      .strand { fill: none; stroke: #08C5FF; stroke-width: 2; stroke-linecap: round; stroke-linejoin: round; }
      .rung { stroke: #08C5FF; stroke-opacity: .65; stroke-width: 1.2; stroke-linecap: round; }
      .axis { stroke: #08C5FF; stroke-opacity: .35; stroke-width: 1; stroke-dasharray: 2 4; }
    </style>
  </defs>
  <path class="axis" d="M 32 0 L 32 256"/>
  <path class="strand" d="M 32.000 0.000 L 33.176 2.000 L 34.341 4.000 L 35.483 6.000 L 36.592 8.000 L 37.657 10.000 L 38.667 12.000 L 39.613 14.000 L 40.485 16.000 L 41.276 18.000 L 41.978 20.000 L 42.583 22.000 L 43.087 24.000 L 43.483 26.000 L 43.769 28.000 L 43.942 30.000 L 44.000 32.000 L 43.942 34.000 L 43.769 36.000 L 43.483 38.000 L 43.087 40.000 L 42.583 42.000 L 41.978 44.000 L 41.276 46.000 L 40.485 48.000 L 39.613 50.000 L 38.667 52.000 L 37.657 54.000 L 36.592 56.000 L 35.483 58.000 L 34.341 60.000 L 33.176 62.000 L 32.000 64.000 L 30.824 66.000 L 29.659 68.000 L 28.517 70.000 L 27.408 72.000 L 26.343 74.000 L 25.333 76.000 L 24.387 78.000 L 23.515 80.000 L 22.724 82.000 L 22.022 84.000 L 21.417 86.000 L 20.913 88.000 L 20.517 90.000 L 20.231 92.000 L 20.058 94.000 L 20.000 96.000 L 20.058 98.000 L 20.231 100.000 L 20.517 102.000 L 20.913 104.000 L 21.417 106.000 L 22.022 108.000 L 22.724 110.000 L 23.515 112.000 L 24.387 114.000 L 25.333 116.000 L 26.343 118.000 L 27.408 120.000 L 28.517 122.000 L 29.659 124.000 L 30.824 126.000 L 32.000 128.000 L 33.176 130.000 L 34.341 132.000 L 35.483 134.000 L 36.592 136.000 L 37.657 138.000 L 38.667 140.000 L 39.613 142.000 L 40.485 144.000 L 41.276 146.000 L 41.978 148.000 L 42.583 150.000 L 43.087 152.000 L 43.483 154.000 L 43.769 156.000 L 43.942 158.000 L 44.000 160.000 L 43.942 162.000 L 43.769 164.000 L 43.483 166.000 L 43.087 168.000 L 42.583 170.000 L 41.978 172.000 L 41.276 174.000 L 40.485 176.000 L 39.613 178.000 L 38.667 180.000 L 37.657 182.000 L 36.592 184.000 L 35.483 186.000 L 34.341 188.000 L 33.176 190.000 L 32.000 192.000 L 30.824 194.000 L 29.659 196.000 L 28.517 198.000 L 27.408 200.000 L 26.343 202.000 L 25.333 204.000 L 24.387 206.000 L 23.515 208.000 L 22.724 210.000 L 22.022 212.000 L 21.417 214.000 L 20.913 216.000 L 20.517 218.000 L 20.231 220.000 L 20.058 222.000 L 20.000 224.000 L 20.058 226.000 L 20.231 228.000 L 20.517 230.000 L 20.913 232.000 L 21.417 234.000 L 22.022 236.000 L 22.724 238.000 L 23.515 240.000 L 24.387 242.000 L 25.333 244.000 L 26.343 246.000 L 27.408 248.000 L 28.517 250.000 L 29.659 252.000 L 30.824 254.000 L 32.000 256.000"/>
  <path class="strand" d="M 32.000 0.000 L 30.824 2.000 L 29.659 4.000 L 28.517 6.000 L 27.408 8.000 L 26.343 10.000 L 25.333 12.000 L 24.387 14.000 L 23.515 16.000 L 22.724 18.000 L 22.022 20.000 L 21.417 22.000 L 20.913 24.000 L 20.517 26.000 L 20.231 28.000 L 20.058 30.000 L 20.000 32.000 L 20.058 34.000 L 20.231 36.000 L 20.517 38.000 L 20.913 40.000 L 21.417 42.000 L 22.022 44.000 L 22.724 46.000 L 23.515 48.000 L 24.387 50.000 L 25.333 52.000 L 26.343 54.000 L 27.408 56.000 L 28.517 58.000 L 29.659 60.000 L 30.824 62.000 L 32.000 64.000 L 33.176 66.000 L 34.341 68.000 L 35.483 70.000 L 36.592 72.000 L 37.657 74.000 L 38.667 76.000 L 39.613 78.000 L 40.485 80.000 L 41.276 82.000 L 41.978 84.000 L 42.583 86.000 L 43.087 88.000 L 43.483 90.000 L 43.769 92.000 L 43.942 94.000 L 44.000 96.000 L 43.942 98.000 L 43.769 100.000 L 43.483 102.000 L 43.087 104.000 L 42.583 106.000 L 41.978 108.000 L 41.276 110.000 L 40.485 112.000 L 39.613 114.000 L 38.667 116.000 L 37.657 118.000 L 36.592 120.000 L 35.483 122.000 L 34.341 124.000 L 33.176 126.000 L 32.000 128.000 L 30.824 130.000 L 29.659 132.000 L 28.517 134.000 L 27.408 136.000 L 26.343 138.000 L 25.333 140.000 L 24.387 142.000 L 23.515 144.000 L 22.724 146.000 L 22.022 148.000 L 21.417 150.000 L 20.913 152.000 L 20.517 154.000 L 20.231 156.000 L 20.058 158.000 L 20.000 160.000 L 20.058 162.000 L 20.231 164.000 L 20.517 166.000 L 20.913 168.000 L 21.417 170.000 L 22.022 172.000 L 22.724 174.000 L 23.515 176.000 L 24.387 178.000 L 25.333 180.000 L 26.343 182.000 L 27.408 184.000 L 28.517 186.000 L 29.659 188.000 L 30.824 190.000 L 32.000 192.000 L 33.176 194.000 L 34.341 196.000 L 35.483 198.000 L 36.592 200.000 L 37.657 202.000 L 38.667 204.000 L 39.613 206.000 L 40.485 208.000 L 41.276 210.000 L 41.978 212.000 L 42.583 214.000 L 43.087 216.000 L 43.483 218.000 L 43.769 220.000 L 43.942 222.000 L 44.000 224.000 L 43.942 226.000 L 43.769 228.000 L 43.483 230.000 L 43.087 232.000 L 42.583 234.000 L 41.978 236.000 L 41.276 238.000 L 40.485 240.000 L 39.613 242.000 L 38.667 244.000 L 37.657 246.000 L 36.592 248.000 L 35.483 250.000 L 34.341 252.000 L 33.176 254.000 L 32.000 256.000"/>
  <g class="rung">
    <path d="M 27.408 8.000 L 36.592 8.000"/>
    <path d="M 20.913 24.000 L 43.087 24.000"/>
    <path d="M 20.913 40.000 L 43.087 40.000"/>
    <path d="M 27.408 56.000 L 36.592 56.000"/>
    <path d="M 36.592 72.000 L 27.408 72.000"/>
    <path d="M 43.087 88.000 L 20.913 88.000"/>
    <path d="M 43.087 104.000 L 20.913 104.000"/>
    <path d="M 36.592 120.000 L 27.408 120.000"/>
    <path d="M 27.408 136.000 L 36.592 136.000"/>
    <path d="M 20.913 152.000 L 43.087 152.000"/>
    <path d="M 20.913 168.000 L 43.087 168.000"/>
    <path d="M 27.408 184.000 L 36.592 184.000"/>
    <path d="M 36.592 200.000 L 27.408 200.000"/>
    <path d="M 43.087 216.000 L 20.913 216.000"/>
    <path d="M 43.087 232.000 L 20.913 232.000"/>
    <path d="M 36.592 248.000 L 27.408 248.000"/>
  </g>
</svg>