<?xml version="1.0" encoding="UTF-8"?>
<svg xmlns="http://www.w3.org/2000/svg" width="32" height="256" viewBox="0 0 32 256">
  <title>Skazka DNA Stripe — Neon Minimal (32x256)</title>
  <desc>Seamless vertical tile. Two sine strands with period 128px, horizontal rungs every 16px. Neo blue.</desc>
  <defs>
    <linearGradient id="vignette" x1="0" x2="1" y1="0" y2="0">
      <stop offset="0" stop-color="#0A0F16" stop-opacity="0.0"/>
      <stop offset="0.5" stop-color="#0A0F16" stop-opacity="0.35"/>
      <stop offset="1" stop-color="#0A0F16" stop-opacity="0.0"/>
    </linearGradient>
  </defs>
  <rect x="0" y="0" width="32" height="256" fill="url(#vignette)"/>
  <path d="M 16.00 0.00 L 16.49 1.00 L 16.98 2.00 L 17.47 3.00 L 17.95 4.00 L 18.43 5.00 L 18.90 6.00 L 19.37 7.00 L 19.83 8.00 L 20.28 9.00 L 20.71 10.00 L 21.14 11.00 L 21.56 12.00 L 21.96 13.00 L 22.34 14.00 L 22.72 15.00 L 23.07 16.00 L 23.41 17.00 L 23.73 18.00 L 24.03 19.00 L 24.31 20.00 L 24.58 21.00 L 24.82 22.00 L 25.04 23.00 L 25.24 24.00 L 25.42 25.00 L 25.57 26.00 L 25.70 27.00 L 25.81 28.00 L 25.89 29.00 L 25.95 30.00 L 25.99 31.00 L 26.00 32.00 L 25.99 33.00 L 25.95 34.00 L 25.89 35.00 L 25.81 36.00 L 25.70 37.00 L 25.57 38.00 L 25.42 39.00 L 25.24 40.00 L 25.04 41.00 L 24.82 42.00 L 24.58 43.00 L 24.31 44.00 L 24.03 45.00 L 23.73 46.00 L 23.41 47.00 L 23.07 48.00 L 22.72 49.00 L 22.34 50.00 L 21.96 51.00 L 21.56 52.00 L 21.14 53.00 L 20.71 54.00 L 20.28 55.00 L 19.83 56.00 L 19.37 57.00 L 18.90 58.00 L 18.43 59.00 L 17.95 60.00 L 17.47 61.00 L 16.98 62.00 L 16.49 63.00 L 16.00 64.00 L 15.51 65.00 L 15.02 66.00 L 14.53 67.00 L 14.05 68.00 L 13.57 69.00 L 13.10 70.00 L 12.63 71.00 L 12.17 72.00 L 11.72 73.00 L 11.29 74.00 L 10.86 75.00 L 10.44 76.00 L 10.04 77.00 L 9.66 78.00 L 9.28 79.00 L 8.93 80.00 L 8.59 81.00 L 8.27 82.00 L 7.97 83.00 L 7.69 84.00 L 7.42 85.00 L 7.18 86.00 L 6.96 87.00 L 6.76 88.00 L 6.58 89.00 L 6.43 90.00 L 6.30 91.00 L 6.19 92.00 L 6.11 93.00 L 6.05 94.00 L 6.01 95.00 L 6.00 96.00 L 6.01 97.00 L 6.05 98.00 L 6.11 99.00 L 6.19 100.00 L 6.30 101.00 L 6.43 102.00 L 6.58 103.00 L 6.76 104.00 L 6.96 105.00 L 7.18 106.00 L 7.42 107.00 L 7.69 108.00 L 7.97 109.00 L 8.27 110.00 L 8.59 111.00 L 8.93 112.00 L 9.28 113.00 L 9.66 114.00 L 10.04 115.00 L 10.44 116.00 L 10.86 117.00 L 11.29 118.00 L 11.72 119.00 L 12.17 120.00 L 12.63 121.00 L 13.10 122.00 L 13.57 123.00 L 14.05 124.00 L 14.53 125.00 L 15.02 126.00 L 15.51 127.00 L 16.00 128.00 L 16.49 129.00 L 16.98 130.00 L 17.47 131.00 L 17.95 132.00 L 18.43 133.00 L 18.90 134.00 L 19.37 135.00 L 19.83 136.00 L 20.28 137.00 L 20.71 138.00 L 21.14 139.00 L 21.56 140.00 L 21.96 141.00 L 22.34 142.00 L 22.72 143.00 L 23.07 144.00 L 23.41 145.00 L 23.73 146.00 L 24.03 147.00 L 24.31 148.00 L 24.58 149.00 L 24.82 150.00 L 25.04 151.00 L 25.24 152.00 L 25.42 153.00 L 25.57 154.00 L 25.70 155.00 L 25.81 156.00 L 25.89 157.00 L 25.95 158.00 L 25.99 159.00 L 26.00 160.00 L 25.99 161.00 L 25.95 162.00 L 25.89 163.00 L 25.81 164.00 L 25.70 165.00 L 25.57 166.00 L 25.42 167.00 L 25.24 168.00 L 25.04 169.00 L 24.82 170.00 L 24.58 171.00 L 24.31 172.00 L 24.03 173.00 L 23.73 174.00 L 23.41 175.00 L 23.07 176.00 L 22.72 177.00 L 22.34 178.00 L 21.96 179.00 L 21.56 180.00 L 21.14 181.00 L 20.71 182.00 L 20.28 183.00 L 19.83 184.00 L 19.37 185.00 L 18.90 186.00 L 18.43 187.00 L 17.95 188.00 L 17.47 189.00 L 16.98 190.00 L 16.49 191.00 L 16.00 192.00 L 15.51 193.00 L 15.02 194.00 L 14.53 195.00 L 14.05 196.00 L 13.57 197.00 L 13.10 198.00 L 12.63 199.00 L 12.17 200.00 L 11.72 201.00 L 11.29 202.00 L 10.86 203.00 L 10.44 204.00 L 10.04 205.00 L 9.66 206.00 L 9.28 207.00 L 8.93 208.00 L 8.59 209.00 L 8.27 210.00 L 7.97 211.00 L 7.69 212.00 L 7.42 213.00 L 7.18 214.00 L 6.96 215.00 L 6.76 216.00 L 6.58 217.00 L 6.43 218.00 L 6.30 219.00 L 6.19 220.00 L 6.11 221.00 L 6.05 222.00 L 6.01 223.00 L 6.00 224.00 L 6.01 225.00 L 6.05 226.00 L 6.11 227.00 L 6.19 228.00 L 6.30 229.00 L 6.43 230.00 L 6.58 231.00 L 6.76 232.00 L 6.96 233.00 L 7.18 234.00 L 7.42 235.00 L 7.69 236.00 L 7.97 237.00 L 8.27 238.00 L 8.59 239.00 L 8.93 240.00 L 9.28 241.00 L 9.66 242.00 L 10.04 243.00 L 10.44 244.00 L 10.86 245.00 L 11.29 246.00 L 11.72 247.00 L 12.17 248.00 L 12.63 249.00 L 13.10 250.00 L 13.57 251.00 L 14.05 252.00 L 14.53 253.00 L 15.02 254.00 L 15.51 255.00 L 16.00 256.00" fill="none" stroke="#08C5FF" stroke-opacity="0.22" stroke-width="4.6" stroke-linecap="round" stroke-linejoin="round"/>
  <path d="M 16.00 0.00 L 15.51 1.00 L 15.02 2.00 L 14.53 3.00 L 14.05 4.00 L 13.57 5.00 L 13.10 6.00 L 12.63 7.00 L 12.17 8.00 L 11.72 9.00 L 11.29 10.00 L 10.86 11.00 L 10.44 12.00 L 10.04 13.00 L 9.66 14.00 L 9.28 15.00 L 8.93 16.00 L 8.59 17.00 L 8.27 18.00 L 7.97 19.00 L 7.69 20.00 L 7.42 21.00 L 7.18 22.00 L 6.96 23.00 L 6.76 24.00 L 6.58 25.00 L 6.43 26.00 L 6.30 27.00 L 6.19 28.00 L 6.11 29.00 L 6.05 30.00 L 6.01 31.00 L 6.00 32.00 L 6.01 33.00 L 6.05 34.00 L 6.11 35.00 L 6.19 36.00 L 6.30 37.00 L 6.43 38.00 L 6.58 39.00 L 6.76 40.00 L 6.96 41.00 L 7.18 42.00 L 7.42 43.00 L 7.69 44.00 L 7.97 45.00 L 8.27 46.00 L 8.59 47.00 L 8.93 48.00 L 9.28 49.00 L 9.66 50.00 L 10.04 51.00 L 10.44 52.00 L 10.86 53.00 L 11.29 54.00 L 11.72 55.00 L 12.17 56.00 L 12.63 57.00 L 13.10 58.00 L 13.57 59.00 L 14.05 60.00 L 14.53 61.00 L 15.02 62.00 L 15.51 63.00 L 16.00 64.00 L 16.49 65.00 L 16.98 66.00 L 17.47 67.00 L 17.95 68.00 L 18.43 69.00 L 18.90 70.00 L 19.37 71.00 L 19.83 72.00 L 20.28 73.00 L 20.71 74.00 L 21.14 75.00 L 21.56 76.00 L 21.96 77.00 L 22.34 78.00 L 22.72 79.00 L 23.07 80.00 L 23.41 81.00 L 23.73 82.00 L 24.03 83.00 L 24.31 84.00 L 24.58 85.00 L 24.82 86.00 L 25.04 87.00 L 25.24 88.00 L 25.42 89.00 L 25.57 90.00 L 25.70 91.00 L 25.81 92.00 L 25.89 93.00 L 25.95 94.00 L 25.99 95.00 L 26.00 96.00 L 25.99 97.00 L 25.95 98.00 L 25.89 99.00 L 25.81 100.00 L 25.70 101.00 L 25.57 102.00 L 25.42 103.00 L 25.24 104.00 L 25.04 105.00 L 24.82 106.00 L 24.58 107.00 L 24.31 108.00 L 24.03 109.00 L 23.73 110.00 L 23.41 111.00 L 23.07 112.00 L 22.72 113.00 L 22.34 114.00 L 21.96 115.00 L 21.56 116.00 L 21.14 117.00 L 20.71 118.00 L 20.28 119.00 L 19.83 120.00 L 19.37 121.00 L 18.90 122.00 L 18.43 123.00 L 17.95 124.00 L 17.47 125.00 L 16.98 126.00 L 16.49 127.00 L 16.00 128.00 L 15.51 129.00 L 15.02 130.00 L 14.53 131.00 L 14.05 132.00 L 13.57 133.00 L 13.10 134.00 L 12.63 135.00 L 12.17 136.00 L 11.72 137.00 L 11.29 138.00 L 10.86 139.00 L 10.44 140.00 L 10.04 141.00 L 9.66 142.00 L 9.28 143.00 L 8.93 144.00 L 8.59 145.00 L 8.27 146.00 L 7.97 147.00 L 7.69 148.00 L 7.42 149.00 L 7.18 150.00 L 6.96 151.00 L 6.76 152.00 L 6.58 153.00 L 6.43 154.00 L 6.30 155.00 L 6.19 156.00 L 6.11 157.00 L 6.05 158.00 L 6.01 159.00 L 6.00 160.00 L 6.01 161.00 L 6.05 162.00 L 6.11 163.00 L 6.19 164.00 L 6.30 165.00 L 6.43 166.00 L 6.58 167.00 L 6.76 168.00 L 6.96 169.00 L 7.18 170.00 L 7.42 171.00 L 7.69 172.00 L 7.97 173.00 L 8.27 174.00 L 8.59 175.00 L 8.93 176.00 L 9.28 177.00 L 9.66 178.00 L 10.04 179.00 L 10.44 180.00 L 10.86 181.00 L 11.29 182.00 L 11.72 183.00 L 12.17 184.00 L 12.63 185.00 L 13.10 186.00 L 13.57 187.00 L 14.05 188.00 L 14.53 189.00 L 15.02 190.00 L 15.51 191.00 L 16.00 192.00 L 16.49 193.00 L 16.98 194.00 L 17.47 195.00 L 17.95 196.00 L 18.43 197.00 L 18.90 198.00 L 19.37 199.00 L 19.83 200.00 L 20.28 201.00 L 20.71 202.00 L 21.14 203.00 L 21.56 204.00 L 21.96 205.00 L 22.34 206.00 L 22.72 207.00 L 23.07 208.00 L 23.41 209.00 L 23.73 210.00 L 24.03 211.00 L 24.31 212.00 L 24.58 213.00 L 24.82 214.00 L 25.04 215.00 L 25.24 216.00 L 25.42 217.00 L 25.57 218.00 L 25.70 219.00 L 25.81 220.00 L 25.89 221.00 L 25.95 222.00 L 25.99 223.00 L 26.00 224.00 L 25.99 225.00 L 25.95 226.00 L 25.89 227.00 L 25.81 228.00 L 25.70 229.00 L 25.57 230.00 L 25.42 231.00 L 25.24 232.00 L 25.04 233.00 L 24.82 234.00 L 24.58 235.00 L 24.31 236.00 L 24.03 237.00 L 23.73 238.00 L 23.41 239.00 L 23.07 240.00 L 22.72 241.00 L 22.34 242.00 L 21.96 243.00 L 21.56 244.00 L 21.14 245.00 L 20.71 246.00 L 20.28 247.00 L 19.83 248.00 L 19.37 249.00 L 18.90 250.00 L 18.43 251.00 L 17.95 252.00 L 17.47 253.00 L 16.98 254.00 L 16.49 255.00 L 16.00 256.00" fill="none" stroke="#08C5FF" stroke-opacity="0.22" stroke-width="4.6" stroke-linecap="round" stroke-linejoin="round"/>
  <path d="M 16.00 0.00 L 16.49 1.00 L 16.98 2.00 L 17.47 3.00 L 17.95 4.00 L 18.43 5.00 L 18.90 6.00 L 19.37 7.00 L 19.83 8.00 L 20.28 9.00 L 20.71 10.00 L 21.14 11.00 L 21.56 12.00 L 21.96 13.00 L 22.34 14.00 L 22.72 15.00 L 23.07 16.00 L 23.41 17.00 L 23.73 18.00 L 24.03 19.00 L 24.31 20.00 L 24.58 21.00 L 24.82 22.00 L 25.04 23.00 L 25.24 24.00 L 25.42 25.00 L 25.57 26.00 L 25.70 27.00 L 25.81 28.00 L 25.89 29.00 L 25.95 30.00 L 25.99 31.00 L 26.00 32.00 L 25.99 33.00 L 25.95 34.00 L 25.89 35.00 L 25.81 36.00 L 25.70 37.00 L 25.57 38.00 L 25.42 39.00 L 25.24 40.00 L 25.04 41.00 L 24.82 42.00 L 24.58 43.00 L 24.31 44.00 L 24.03 45.00 L 23.73 46.00 L 23.41 47.00 L 23.07 48.00 L 22.72 49.00 L 22.34 50.00 L 21.96 51.00 L 21.56 52.00 L 21.14 53.00 L 20.71 54.00 L 20.28 55.00 L 19.83 56.00 L 19.37 57.00 L 18.90 58.00 L 18.43 59.00 L 17.95 60.00 L 17.47 61.00 L 16.98 62.00 L 16.49 63.00 L 16.00 64.00 L 15.51 65.00 L 15.02 66.00 L 14.53 67.00 L 14.05 68.00 L 13.57 69.00 L 13.10 70.00 L 12.63 71.00 L 12.17 72.00 L 11.72 73.00 L 11.29 74.00 L 10.86 75.00 L 10.44 76.00 L 10.04 77.00 L 9.66 78.00 L 9.28 79.00 L 8.93 80.00 L 8.59 81.00 L 8.27 82.00 L 7.97 83.00 L 7.69 84.00 L 7.42 85.00 L 7.18 86.00 L 6.96 87.00 L 6.76 88.00 L 6.58 89.00 L 6.43 90.00 L 6.30 91.00 L 6.19 92.00 L 6.11 93.00 L 6.05 94.00 L 6.01 95.00 L 6.00 96.00 L 6.01 97.00 L 6.05 98.00 L 6.11 99.00 L 6.19 100.00 L 6.30 101.00 L 6.43 102.00 L 6.58 103.00 L 6.76 104.00 L 6.96 105.00 L 7.18 106.00 L 7.42 107.00 L 7.69 108.00 L 7.97 109.00 L 8.27 110.00 L 8.59 111.00 L 8.93 112.00 L 9.28 113.00 L 9.66 114.00 L 10.04 115.00 L 10.44 116.00 L 10.86 117.00 L 11.29 118.00 L 11.72 119.00 L 12.17 120.00 L 12.63 121.00 L 13.10 122.00 L 13.57 123.00 L 14.05 124.00 L 14.53 125.00 L 15.02 126.00 L 15.51 127.00 L 16.00 128.00 L 16.49 129.00 L 16.98 130.00 L 17.47 131.00 L 17.95 132.00 L 18.43 133.00 L 18.90 134.00 L 19.37 135.00 L 19.83 136.00 L 20.28 137.00 L 20.71 138.00 L 21.14 139.00 L 21.56 140.00 L 21.96 141.00 L 22.34 142.00 L 22.72 143.00 L 23.07 144.00 L 23.41 145.00 L 23.73 146.00 L 24.03 147.00 L 24.31 148.00 L 24.58 149.00 L 24.82 150.00 L 25.04 151.00 L 25.24 152.00 L 25.42 153.00 L 25.57 154.00 L 25.70 155.00 L 25.81 156.00 L 25.89 157.00 L 25.95 158.00 L 25.99 159.00 L 26.00 160.00 L 25.99 161.00 L 25.95 162.00 L 25.89 163.00 L 25.81 164.00 L 25.70 165.00 L 25.57 166.00 L 25.42 167.00 L 25.24 168.00 L 25.04 169.00 L 24.82 170.00 L 24.58 171.00 L 24.31 172.00 L 24.03 173.00 L 23.73 174.00 L 23.41 175.00 L 23.07 176.00 L 22.72 177.00 L 22.34 178.00 L 21.96 179.00 L 21.56 180.00 L 21.14 181.00 L 20.71 182.00 L 20.28 183.00 L 19.83 184.00 L 19.37 185.00 L 18.90 186.00 L 18.43 187.00 L 17.95 188.00 L 17.47 189.00 L 16.98 190.00 L 16.49 191.00 L 16.00 192.00 L 15.51 193.00 L 15.02 194.00 L 14.53 195.00 L 14.05 196.00 L 13.57 197.00 L 13.10 198.00 L 12.63 199.00 L 12.17 200.00 L 11.72 201.00 L 11.29 202.00 L 10.86 203.00 L 10.44 204.00 L 10.04 205.00 L 9.66 206.00 L 9.28 207.00 L 8.93 208.00 L 8.59 209.00 L 8.27 210.00 L 7.97 211.00 L 7.69 212.00 L 7.42 213.00 L 7.18 214.00 L 6.96 215.00 L 6.76 216.00 L 6.58 217.00 L 6.43 218.00 L 6.30 219.00 L 6.19 220.00 L 6.11 221.00 L 6.05 222.00 L 6.01 223.00 L 6.00 224.00 L 6.01 225.00 L 6.05 226.00 L 6.11 227.00 L 6.19 228.00 L 6.30 229.00 L 6.43 230.00 L 6.58 231.00 L 6.76 232.00 L 6.96 233.00 L 7.18 234.00 L 7.42 235.00 L 7.69 236.00 L 7.97 237.00 L 8.27 238.00 L 8.59 239.00 L 8.93 240.00 L 9.28 241.00 L 9.66 242.00 L 10.04 243.00 L 10.44 244.00 L 10.86 245.00 L 11.29 246.00 L 11.72 247.00 L 12.17 248.00 L 12.63 249.00 L 13.10 250.00 L 13.57 251.00 L 14.05 252.00 L 14.53 253.00 L 15.02 254.00 L 15.51 255.00 L 16.00 256.00" fill="none" stroke="#08C5FF" stroke-opacity="0.35" stroke-width="3.2" stroke-linecap="round" stroke-linejoin="round"/>
  <path d="M 16.00 0.00 L 15.51 1.00 L 15.02 2.00 L 14.53 3.00 L 14.05 4.00 L 13.57 5.00 L 13.10 6.00 L 12.63 7.00 L 12.17 8.00 L 11.72 9.00 L 11.29 10.00 L 10.86 11.00 L 10.44 12.00 L 10.04 13.00 L 9.66 14.00 L 9.28 15.00 L 8.93 16.00 L 8.59 17.00 L 8.27 18.00 L 7.97 19.00 L 7.69 20.00 L 7.42 21.00 L 7.18 22.00 L 6.96 23.00 L 6.76 24.00 L 6.58 25.00 L 6.43 26.00 L 6.30 27.00 L 6.19 28.00 L 6.11 29.00 L 6.05 30.00 L 6.01 31.00 L 6.00 32.00 L 6.01 33.00 L 6.05 34.00 L 6.11 35.00 L 6.19 36.00 L 6.30 37.00 L 6.43 38.00 L 6.58 39.00 L 6.76 40.00 L 6.96 41.00 L 7.18 42.00 L 7.42 43.00 L 7.69 44.00 L 7.97 45.00 L 8.27 46.00 L 8.59 47.00 L 8.93 48.00 L 9.28 49.00 L 9.66 50.00 L 10.04 51.00 L 10.44 52.00 L 10.86 53.00 L 11.29 54.00 L 11.72 55.00 L 12.17 56.00 L 12.63 57.00 L 13.10 58.00 L 13.57 59.00 L 14.05 60.00 L 14.53 61.00 L 15.02 62.00 L 15.51 63.00 L 16.00 64.00 L 16.49 65.00 L 16.98 66.00 L 17.47 67.00 L 17.95 68.00 L 18.43 69.00 L 18.90 70.00 L 19.37 71.00 L 19.83 72.00 L 20.28 73.00 L 20.71 74.00 L 21.14 75.00 L 21.56 76.00 L 21.96 77.00 L 22.34 78.00 L 22.72 79.00 L 23.07 80.00 L 23.41 81.00 L 23.73 82.00 L 24.03 83.00 L 24.31 84.00 L 24.58 85.00 L 24.82 86.00 L 25.04 87.00 L 25.24 88.00 L 25.42 89.00 L 25.57 90.00 L 25.70 91.00 L 25.81 92.00 L 25.89 93.00 L 25.95 94.00 L 25.99 95.00 L 26.00 96.00 L 25.99 97.00 L 25.95 98.00 L 25.89 99.00 L 25.81 100.00 L 25.70 101.00 L 25.57 102.00 L 25.42 103.00 L 25.24 104.00 L 25.04 105.00 L 24.82 106.00 L 24.58 107.00 L 24.31 108.00 L 24.03 109.00 L 23.73 110.00 L 23.41 111.00 L 23.07 112.00 L 22.72 113.00 L 22.34 114.00 L 21.96 115.00 L 21.56 116.00 L 21.14 117.00 L 20.71 118.00 L 20.28 119.00 L 19.83 120.00 L 19.37 121.00 L 18.90 122.00 L 18.43 123.00 L 17.95 124.00 L 17.47 125.00 L 16.98 126.00 L 16.49 127.00 L 16.00 128.00 L 15.51 129.00 L 15.02 130.00 L 14.53 131.00 L 14.05 132.00 L 13.57 133.00 L 13.10 134.00 L 12.63 135.00 L 12.17 136.00 L 11.72 137.00 L 11.29 138.00 L 10.86 139.00 L 10.44 140.00 L 10.04 141.00 L 9.66 142.00 L 9.28 143.00 L 8.93 144.00 L 8.59 145.00 L 8.27 146.00 L 7.97 147.00 L 7.69 148.00 L 7.42 149.00 L 7.18 150.00 L 6.96 151.00 L 6.76 152.00 L 6.58 153.00 L 6.43 154.00 L 6.30 155.00 L 6.19 156.00 L 6.11 157.00 L 6.05 158.00 L 6.01 159.00 L 6.00 160.00 L 6.01 161.00 L 6.05 162.00 L 6.11 163.00 L 6.19 164.00 L 6.30 165.00 L 6.43 166.00 L 6.58 167.00 L 6.76 168.00 L 6.96 169.00 L 7.18 170.00 L 7.42 171.00 L 7.69 172.00 L 7.97 173.00 L 8.27 174.00 L 8.59 175.00 L 8.93 176.00 L 9.28 177.00 L 9.66 178.00 L 10.04 179.00 L 10.44 180.00 L 10.86 181.00 L 11.29 182.00 L 11.72 183.00 L 12.17 184.00 L 12.63 185.00 L 13.10 186.00 L 13.57 187.00 L 14.05 188.00 L 14.53 189.00 L 15.02 190.00 L 15.51 191.00 L 16.00 192.00 L 16.49 193.00 L 16.98 194.00 L 17.47 195.00 L 17.95 196.00 L 18.43 197.00 L 18.90 198.00 L 19.37 199.00 L 19.83 200.00 L 20.28 201.00 L 20.71 202.00 L 21.14 203.00 L 21.56 204.00 L 21.96 205.00 L 22.34 206.00 L 22.72 207.00 L 23.07 208.00 L 23.41 209.00 L 23.73 210.00 L 24.03 211.00 L 24.31 212.00 L 24.58 213.00 L 24.82 214.00 L 25.04 215.00 L 25.24 216.00 L 25.42 217.00 L 25.57 218.00 L 25.70 219.00 L 25.81 220.00 L 25.89 221.00 L 25.95 222.00 L 25.99 223.00 L 26.00 224.00 L 25.99 225.00 L 25.95 226.00 L 25.89 227.00 L 25.81 228.00 L 25.70 229.00 L 25.57 230.00 L 25.42 231.00 L 25.24 232.00 L 25.04 233.00 L 24.82 234.00 L 24.58 235.00 L 24.31 236.00 L 24.03 237.00 L 23.73 238.00 L 23.41 239.00 L 23.07 240.00 L 22.72 241.00 L 22.34 242.00 L 21.96 243.00 L 21.56 244.00 L 21.14 245.00 L 20.71 246.00 L 20.28 247.00 L 19.83 248.00 L 19.37 249.00 L 18.90 250.00 L 18.43 251.00 L 17.95 252.00 L 17.47 253.00 L 16.98 254.00 L 16.49 255.00 L 16.00 256.00" fill="none" stroke="#08C5FF" stroke-opacity="0.35" stroke-width="3.2" stroke-linecap="round" stroke-linejoin="round"/>
  <path d="M 16.00 0.00 L 16.49 1.00 L 16.98 2.00 L 17.47 3.00 L 17.95 4.00 L 18.43 5.00 L 18.90 6.00 L 19.37 7.00 L 19.83 8.00 L 20.28 9.00 L 20.71 10.00 L 21.14 11.00 L 21.56 12.00 L 21.96 13.00 L 22.34 14.00 L 22.72 15.00 L 23.07 16.00 L 23.41 17.00 L 23.73 18.00 L 24.03 19.00 L 24.31 20.00 L 24.58 21.00 L 24.82 22.00 L 25.04 23.00 L 25.24 24.00 L 25.42 25.00 L 25.57 26.00 L 25.70 27.00 L 25.81 28.00 L 25.89 29.00 L 25.95 30.00 L 25.99 31.00 L 26.00 32.00 L 25.99 33.00 L 25.95 34.00 L 25.89 35.00 L 25.81 36.00 L 25.70 37.00 L 25.57 38.00 L 25.42 39.00 L 25.24 40.00 L 25.04 41.00 L 24.82 42.00 L 24.58 43.00 L 24.31 44.00 L 24.03 45.00 L 23.73 46.00 L 23.41 47.00 L 23.07 48.00 L 22.72 49.00 L 22.34 50.00 L 21.96 51.00 L 21.56 52.00 L 21.14 53.00 L 20.71 54.00 L 20.28 55.00 L 19.83 56.00 L 19.37 57.00 L 18.90 58.00 L 18.43 59.00 L 17.95 60.00 L 17.47 61.00 L 16.98 62.00 L 16.49 63.00 L 16.00 64.00 L 15.51 65.00 L 15.02 66.00 L 14.53 67.00 L 14.05 68.00 L 13.57 69.00 L 13.10 70.00 L 12.63 71.00 L 12.17 72.00 L 11.72 73.00 L 11.29 74.00 L 10.86 75.00 L 10.44 76.00 L 10.04 77.00 L 9.66 78.00 L 9.28 79.00 L 8.93 80.00 L 8.59 81.00 L 8.27 82.00 L 7.97 83.00 L 7.69 84.00 L 7.42 85.00 L 7.18 86.00 L 6.96 87.00 L 6.76 88.00 L 6.58 89.00 L 6.43 90.00 L 6.30 91.00 L 6.19 92.00 L 6.11 93.00 L 6.05 94.00 L 6.01 95.00 L 6.00 96.00 L 6.01 97.00 L 6.05 98.00 L 6.11 99.00 L 6.19 100.00 L 6.30 101.00 L 6.43 102.00 L 6.58 103.00 L 6.76 104.00 L 6.96 105.00 L 7.18 106.00 L 7.42 107.00 L 7.69 108.00 L 7.97 109.00 L 8.27 110.00 L 8.59 111.00 L 8.93 112.00 L 9.28 113.00 L 9.66 114.00 L 10.04 115.00 L 10.44 116.00 L 10.86 117.00 L 11.29 118.00 L 11.72 119.00 L 12.17 120.00 L 12.63 121.00 L 13.10 122.00 L 13.57 123.00 L 14.05 124.00 L 14.53 125.00 L 15.02 126.00 L 15.51 127.00 L 16.00 128.00 L 16.49 129.00 L 16.98 130.00 L 17.47 131.00 L 17.95 132.00 L 18.43 133.00 L 18.90 134.00 L 19.37 135.00 L 19.83 136.00 L 20.28 137.00 L 20.71 138.00 L 21.14 139.00 L 21.56 140.00 L 21.96 141.00 L 22.34 142.00 L 22.72 143.00 L 23.07 144.00 L 23.41 145.00 L 23.73 146.00 L 24.03 147.00 L 24.31 148.00 L 24.58 149.00 L 24.82 150.00 L 25.04 151.00 L 25.24 152.00 L 25.42 153.00 L 25.57 154.00 L 25.70 155.00 L 25.81 156.00 L 25.89 157.00 L 25.95 158.00 L 25.99 159.00 L 26.00 160.00 L 25.99 161.00 L 25.95 162.00 L 25.89 163.00 L 25.81 164.00 L 25.70 165.00 L 25.57 166.00 L 25.42 167.00 L 25.24 168.00 L 25.04 169.00 L 24.82 170.00 L 24.58 171.00 L 24.31 172.00 L 24.03 173.00 L 23.73 174.00 L 23.41 175.00 L 23.07 176.00 L 22.72 177.00 L 22.34 178.00 L 21.96 179.00 L 21.56 180.00 L 21.14 181.00 L 20.71 182.00 L 20.28 183.00 L 19.83 184.00 L 19.37 185.00 L 18.90 186.00 L 18.43 187.00 L 17.95 188.00 L 17.47 189.00 L 16.98 190.00 L 16.49 191.00 L 16.00 192.00 L 15.51 193.00 L 15.02 194.00 L 14.53 195.00 L 14.05 196.00 L 13.57 197.00 L 13.10 198.00 L 12.63 199.00 L 12.17 200.00 L 11.72 201.00 L 11.29 202.00 L 10.86 203.00 L 10.44 204.00 L 10.04 205.00 L 9.66 206.00 L 9.28 207.00 L 8.93 208.00 L 8.59 209.00 L 8.27 210.00 L 7.97 211.00 L 7.69 212.00 L 7.42 213.00 L 7.18 214.00 L 6.96 215.00 L 6.76 216.00 L 6.58 217.00 L 6.43 218.00 L 6.30 219.00 L 6.19 220.00 L 6.11 221.00 L 6.05 222.00 L 6.01 223.00 L 6.00 224.00 L 6.01 225.00 L 6.05 226.00 L 6.11 227.00 L 6.19 228.00 L 6.30 229.00 L 6.43 230.00 L 6.58 231.00 L 6.76 232.00 L 6.96 233.00 L 7.18 234.00 L 7.42 235.00 L 7.69 236.00 L 7.97 237.00 L 8.27 238.00 L 8.59 239.00 L 8.93 240.00 L 9.28 241.00 L 9.66 242.00 L 10.04 243.00 L 10.44 244.00 L 10.86 245.00 L 11.29 246.00 L 11.72 247.00 L 12.17 248.00 L 12.63 249.00 L 13.10 250.00 L 13.57 251.00 L 14.05 252.00 L 14.53 253.00 L 15.02 254.00 L 15.51 255.00 L 16.00 256.00" fill="none" stroke="#08C5FF" stroke-opacity="0.85" stroke-width="2.0" stroke-linecap="round" stroke-linejoin="round"/>
  <path d="M 16.00 0.00 L 15.51 1.00 L 15.02 2.00 L 14.53 3.00 L 14.05 4.00 L 13.57 5.00 L 13.10 6.00 L 12.63 7.00 L 12.17 8.00 L 11.72 9.00 L 11.29 10.00 L 10.86 11.00 L 10.44 12.00 L 10.04 13.00 L 9.66 14.00 L 9.28 15.00 L 8.93 16.00 L 8.59 17.00 L 8.27 18.00 L 7.97 19.00 L 7.69 20.00 L 7.42 21.00 L 7.18 22.00 L 6.96 23.00 L 6.76 24.00 L 6.58 25.00 L 6.43 26.00 L 6.30 27.00 L 6.19 28.00 L 6.11 29.00 L 6.05 30.00 L 6.01 31.00 L 6.00 32.00 L 6.01 33.00 L 6.05 34.00 L 6.11 35.00 L 6.19 36.00 L 6.30 37.00 L 6.43 38.00 L 6.58 39.00 L 6.76 40.00 L 6.96 41.00 L 7.18 42.00 L 7.42 43.00 L 7.69 44.00 L 7.97 45.00 L 8.27 46.00 L 8.59 47.00 L 8.93 48.00 L 9.28 49.00 L 9.66 50.00 L 10.04 51.00 L 10.44 52.00 L 10.86 53.00 L 11.29 54.00 L 11.72 55.00 L 12.17 56.00 L 12.63 57.00 L 13.10 58.00 L 13.57 59.00 L 14.05 60.00 L 14.53 61.00 L 15.02 62.00 L 15.51 63.00 L 16.00 64.00 L 16.49 65.00 L 16.98 66.00 L 17.47 67.00 L 17.95 68.00 L 18.43 69.00 L 18.90 70.00 L 19.37 71.00 L 19.83 72.00 L 20.28 73.00 L 20.71 74.00 L 21.14 75.00 L 21.56 76.00 L 21.96 77.00 L 22.34 78.00 L 22.72 79.00 L 23.07 80.00 L 23.41 81.00 L 23.73 82.00 L 24.03 83.00 L 24.31 84.00 L 24.58 85.00 L 24.82 86.00 L 25.04 87.00 L 25.24 88.00 L 25.42 89.00 L 25.57 90.00 L 25.70 91.00 L 25.81 92.00 L 25.89 93.00 L 25.95 94.00 L 25.99 95.00 L 26.00 96.00 L 25.99 97.00 L 25.95 98.00 L 25.89 99.00 L 25.81 100.00 L 25.70 101.00 L 25.57 102.00 L 25.42 103.00 L 25.24 104.00 L 25.04 105.00 L 24.82 106.00 L 24.58 107.00 L 24.31 108.00 L 24.03 109.00 L 23.73 110.00 L 23.41 111.00 L 23.07 112.00 L 22.72 113.00 L 22.34 114.00 L 21.96 115.00 L 21.56 116.00 L 21.14 117.00 L 20.71 118.00 L 20.28 119.00 L 19.83 120.00 L 19.37 121.00 L 18.90 122.00 L 18.43 123.00 L 17.95 124.00 L 17.47 125.00 L 16.98 126.00 L 16.49 127.00 L 16.00 128.00 L 15.51 129.00 L 15.02 130.00 L 14.53 131.00 L 14.05 132.00 L 13.57 133.00 L 13.10 134.00 L 12.63 135.00 L 12.17 136.00 L 11.72 137.00 L 11.29 138.00 L 10.86 139.00 L 10.44 140.00 L 10.04 141.00 L 9.66 142.00 L 9.28 143.00 L 8.93 144.00 L 8.59 145.00 L 8.27 146.00 L 7.97 147.00 L 7.69 148.00 L 7.42 149.00 L 7.18 150.00 L 6.96 151.00 L 6.76 152.00 L 6.58 153.00 L 6.43 154.00 L 6.30 155.00 L 6.19 156.00 L 6.11 157.00 L 6.05 158.00 L 6.01 159.00 L 6.00 160.00 L 6.01 161.00 L 6.05 162.00 L 6.11 163.00 L 6.19 164.00 L 6.30 165.00 L 6.43 166.00 L 6.58 167.00 L 6.76 168.00 L 6.96 169.00 L 7.18 170.00 L 7.42 171.00 L 7.69 172.00 L 7.97 173.00 L 8.27 174.00 L 8.59 175.00 L 8.93 176.00 L 9.28 177.00 L 9.66 178.00 L 10.04 179.00 L 10.44 180.00 L 10.86 181.00 L 11.29 182.00 L 11.72 183.00 L 12.17 184.00 L 12.63 185.00 L 13.10 186.00 L 13.57 187.00 L 14.05 188.00 L 14.53 189.00 L 15.02 190.00 L 15.51 191.00 L 16.00 192.00 L 16.49 193.00 L 16.98 194.00 L 17.47 195.00 L 17.95 196.00 L 18.43 197.00 L 18.90 198.00 L 19.37 199.00 L 19.83 200.00 L 20.28 201.00 L 20.71 202.00 L 21.14 203.00 L 21.56 204.00 L 21.96 205.00 L 22.34 206.00 L 22.72 207.00 L 23.07 208.00 L 23.41 209.00 L 23.73 210.00 L 24.03 211.00 L 24.31 212.00 L 24.58 213.00 L 24.82 214.00 L 25.04 215.00 L 25.24 216.00 L 25.42 217.00 L 25.57 218.00 L 25.70 219.00 L 25.81 220.00 L 25.89 221.00 L 25.95 222.00 L 25.99 223.00 L 26.00 224.00 L 25.99 225.00 L 25.95 226.00 L 25.89 227.00 L 25.81 228.00 L 25.70 229.00 L 25.57 230.00 L 25.42 231.00 L 25.24 232.00 L 25.04 233.00 L 24.82 234.00 L 24.58 235.00 L 24.31 236.00 L 24.03 237.00 L 23.73 238.00 L 23.41 239.00 L 23.07 240.00 L 22.72 241.00 L 22.34 242.00 L 21.96 243.00 L 21.56 244.00 L 21.14 245.00 L 20.71 246.00 L 20.28 247.00 L 19.83 248.00 L 19.37 249.00 L 18.90 250.00 L 18.43 251.00 L 17.95 252.00 L 17.47 253.00 L 16.98 254.00 L 16.49 255.00 L 16.00 256.00" fill="none" stroke="#08C5FF" stroke-opacity="0.85" stroke-width="2.0" stroke-linecap="round" stroke-linejoin="round"/>
  <path d="M 12.17 8.00 L 19.83 8.00" fill="none" stroke="#08C5FF" stroke-opacity=".55" stroke-width="1.6" stroke-linecap="round"/><path d="M 6.76 24.00 L 25.24 24.00" fill="none" stroke="#08C5FF" stroke-opacity=".55" stroke-width="1.6" stroke-linecap="round"/><path d="M 6.76 40.00 L 25.24 40.00" fill="none" stroke="#08C5FF" stroke-opacity=".55" stroke-width="1.6" stroke-linecap="round"/><path d="M 12.17 56.00 L 19.83 56.00" fill="none" stroke="#08C5FF" stroke-opacity=".55" stroke-width="1.6" stroke-linecap="round"/><path d="M 19.83 72.00 L 12.17 72.00" fill="none" stroke="#08C5FF" stroke-opacity=".55" stroke-width="1.6" stroke-linecap="round"/><path d="M 25.24 88.00 L 6.76 88.00" fill="none" stroke="#08C5FF" stroke-opacity=".55" stroke-width="1.6" stroke-linecap="round"/><path d="M 25.24 104.00 L 6.76 104.00" fill="none" stroke="#08C5FF" stroke-opacity=".55" stroke-width="1.6" stroke-linecap="round"/><path d="M 19.83 120.00 L 12.17 120.00" fill="none" stroke="#08C5FF" stroke-opacity=".55" stroke-width="1.6" stroke-linecap="round"/><path d="M 12.17 136.00 L 19.83 136.00" fill="none" stroke="#08C5FF" stroke-opacity=".55" stroke-width="1.6" stroke-linecap="round"/><path d="M 6.76 152.00 L 25.24 152.00" fill="none" stroke="#08C5FF" stroke-opacity=".55" stroke-width="1.6" stroke-linecap="round"/><path d="M 6.76 168.00 L 25.24 168.00" fill="none" stroke="#08C5FF" stroke-opacity=".55" stroke-width="1.6" stroke-linecap="round"/><path d="M 12.17 184.00 L 19.83 184.00" fill="none" stroke="#08C5FF" stroke-opacity=".55" stroke-width="1.6" stroke-linecap="round"/><path d="M 19.83 200.00 L 12.17 200.00" fill="none" stroke="#08C5FF" stroke-opacity=".55" stroke-width="1.6" stroke-linecap="round"/><path d="M 25.24 216.00 L 6.76 216.00" fill="none" stroke="#08C5FF" stroke-opacity=".55" stroke-width="1.6" stroke-linecap="round"/><path d="M 25.24 232.00 L 6.76 232.00" fill="none" stroke="#08C5FF" stroke-opacity=".55" stroke-width="1.6" stroke-linecap="round"/><path d="M 19.83 248.00 L 12.17 248.00" fill="none" stroke="#08C5FF" stroke-opacity=".55" stroke-width="1.6" stroke-linecap="round"/>
</svg>
